# xmcd CD database file
#
# Track frame offsets:
#	150
#	4326
#	26167
#	37272
#	50933
#	70905
#	78066
#	92503
#	105053
#	123729
#	137081
#	154215
#	166263
#	176306
#	190386
#
# Disc length: 2560 seconds
#
# Revision: 2
# Processed by: cddbd v1.5.1PL2 Copyright (c) Steve Scherf et al.
# Submitted via: Feurio! 1.68 - http://www.feurio.com
#
DISCID=c509fe0f
DTITLE=Shanty Chor Bad Zwischenahn - Frische Brise
DYEAR=2005
DGENRE=country
TTITLE0=Heyo Heyo
TTITLE1=Auf groﬂer Fahrt Potp.
TTITLE2=My Bonnie
TTITLE3=Nimm uns mit Kapit‰n auf die Reise
TTITLE4=Frische Brise Walzer Potp.
TTITLE5=Anchors Aweigh
TTITLE6=Die Windjammer kommen
TTITLE7=Rio de Janeiro
TTITLE8=Auch Matrosen haben eine Heimat
TTITLE9=Antje mein blondes Kind
TTITLE10=Das gibt's nur auf der Reeperbahn bei  Nacht
TTITLE11=Baltimore
TTITLE12=Heut' lief ein Schiff in den Hafen
TTITLE13=Roll, Alabama roll
TTITLE14=Besan schoot an
EXTD=WRP 7.0502 www.mandi.de
EXTT0=
EXTT1=
EXTT2=
EXTT3=
EXTT4=
EXTT5=
EXTT6=
EXTT7=
EXTT8=
EXTT9=
EXTT10=
EXTT11=
EXTT12=
EXTT13=
EXTT14=
PLAYORDER=
